<svg viewBox="0 0 4000 4000" xml:space="preserve" xmlns="http://www.w3.org/2000/svg" xmlns:xlink="http://www.w3.org/1999/xlink"><path d="M967.6 764.7c110.2-54.7 263.7 30 342.5 189 78.8 158.9 53.3 332.3-56.9 387-110.2 54.6-263.7-30-342.5-189-78.8-158.9-53.4-332.4 56.9-387zm2653.3 1786.4c6.9 38.3-55 81.7-138.2 96.8-83.2 15.1-156.4-3.8-163.4-42.1-6.9-38.3 55-81.7 138.2-96.8 83.2-15 156.4 3.8 163.4 42.1z" fill-rule="evenodd" clip-rule="evenodd" fill="#e8fff4" class="fill-fff0e9"></path><path d="M2727 1411.1c237.2-118.1 418.3-540 718.3-589.5 321.8-53 493.9 372.5 212.7 830.9-300.1 489-1175.4 493.6-1253.6 220.6-80.3-280.5 136.8-369.5 322.6-462zm-2123.6 333c202.3-74.2 618.1-91.9 872.7 470.4 222.6 491.6 544.4 300.3 633.2 554.5 116.8 334.3-692 724.1-1505.9 270.2-493.7-275.4-579.5-1082.7 0-1295.1z" fill="#e1ffe0" fill-rule="evenodd" clip-rule="evenodd" class="fill-ffebe2"></path><path d="M2003.9 2097.2s-9.5 27.6-42.2 51.4c-17.4 12.6-4 33.9 14.5 30.9 0 0-8.5 7.5-21.4 10.8-19 4.9-14.6 26.1 1.7 27.6 11.4 1 19.2-.9 29-6.3 0 0 13.6 13.4 37 0 0 0 43.6 12.9 75.9-63.2.1 0-66.7-66-94.5-51.2z" fill="#f99382" fill-rule="evenodd" clip-rule="evenodd" class="fill-f99382"></path><path d="m2307.2 2872.1 29.7 63.9c-37.4 40.4-57.3 149.7 0 172.6 21.2 8.5 43.5 2.7 63.1-9.2 32.9-20.1 58.5-57.5 59.4-73.4l-49.1-199.1-103.1 45.2z" fill="#24245b" fill-rule="evenodd" clip-rule="evenodd" class="fill-24245b"></path><path d="m2547.1 3066.9 5.4 185h-236.1s-14.3-105 103.6-110.1l4.3-73.4 122.8-1.5z" fill="#24245b" fill-rule="evenodd" clip-rule="evenodd" class="fill-24245b"></path><path d="M2992.2 3066.9v185h-281.9s-17.1-105 123.7-110.1l11.7-73.4 146.5-1.5z" fill="#7ca3c4" fill-rule="evenodd" clip-rule="evenodd" class="fill-c57dba"></path><defs><path d="M2992.2 3066.9v185h-281.9s-17.1-105 123.7-110.1l11.7-73.4 146.5-1.5z" id="a"></path></defs><clipPath id="b"><use overflow="visible" xlink:href="#a"></use></clipPath><g clip-path="url(#b)"><path d="M2841.7 3095s55.4 25.8 151.1 15.1l11-40.1-162.5 2.7.4 22.3z" fill="#24245b" fill-rule="evenodd" clip-rule="evenodd" class="fill-24245b"></path></g><path d="M3177.3 3066.9v185h281.9s17.1-105-123.7-110.1l-11.7-73.4-146.5-1.5z" fill="#7ca3c4" fill-rule="evenodd" clip-rule="evenodd" class="fill-c57dba"></path><defs><path d="M3177.3 3066.9v185h281.9s17.1-105-123.7-110.1l-11.7-73.4-146.5-1.5z" id="c"></path></defs><clipPath id="d"><use overflow="visible" xlink:href="#c"></use></clipPath><g clip-path="url(#d)"><path d="M3328.1 3095s-54.9 26.7-150.8 17.6l-11.7-39.9h162.5v22.3z" fill="#24245b" fill-rule="evenodd" clip-rule="evenodd" class="fill-24245b"></path></g><path d="M2806.3 2136.8s-32.2 59.2-22.4 97.2c5.2 20.1 49.1 40.2 76.5 56.2l7.3-153.4c-.1 0-24.8-32.1-61.4 0z" fill="#f99382" fill-rule="evenodd" clip-rule="evenodd" class="fill-f99382"></path><path d="M2247.1 2002.4s-123.9 402.2-116.7 489.2 161.9 393.3 161.9 393.3 95.1 4.9 145.6-63.7l-112.1-329.7 84.5-286.2 176.3-191.6-339.5-11.3z" fill="#c3d4f0" fill-rule="evenodd" clip-rule="evenodd" class="fill-efc2e9"></path><defs><path d="M2247.1 2002.4s-123.9 402.2-116.7 489.2 161.9 393.3 161.9 393.3 95.1 4.9 145.6-63.7l-112.1-329.7 84.5-286.2 176.3-191.6-339.5-11.3z" id="e"></path></defs><clipPath id="f"><use overflow="visible" xlink:href="#e"></use></clipPath><g clip-path="url(#f)"><path d="M2358.3 2587.5c23.1 186.7-70.6 288.6-90.4 248.2v104.5l215.7-69.6s-131.6-334.3-125.3-283.1zm-117.5-564.4s120.5 51.1 345 22.7l.8-32s-320.7-40.8-343 0l-2.8 9.3z" fill="#24245b" fill-rule="evenodd" clip-rule="evenodd" class="fill-24245b"></path></g><path d="m2559 3078 27.6-1064.2-213.4 88.9 20.2 975.3c61 13.9 109 13.9 165.6 0z" fill="#c3d4f0" fill-rule="evenodd" clip-rule="evenodd" class="fill-efc2e9"></path><defs><path d="m2559 3078 27.6-1064.2-213.4 88.9 20.2 975.3c61 13.9 109 13.9 165.6 0z" id="g"></path></defs><clipPath id="h"><use overflow="visible" xlink:href="#g"></use></clipPath><g clip-path="url(#h)"><path d="M2240.8 2023.1s120.5 51.1 345 22.7l.8-32s-320.7-40.8-343 0l-2.8 9.3z" fill="#24245b" fill-rule="evenodd" clip-rule="evenodd" class="fill-24245b"></path></g><path d="M2373.2 2102.8s-13.2 207.5-32.9 339.4l38.2-129.2-5.3-210.2z" fill="#24245b" fill-rule="evenodd" clip-rule="evenodd" class="fill-24245b"></path><path d="M1691.2 3048.5v203.4h268.9s12.8-110.1-132.3-110.1l10.1-91.8-146.7-1.5z" fill="#7ca3c4" fill-rule="evenodd" clip-rule="evenodd" class="fill-c57dba"></path><defs><path d="M1691.2 3048.5v203.4h268.9s12.8-110.1-132.3-110.1l10.1-91.8-146.7-1.5z" id="i"></path></defs><clipPath id="j"><use overflow="visible" xlink:href="#i"></use></clipPath><g clip-path="url(#j)"><path d="M1867.4 3074.5s-56.6 22.8-151.7 7.2l-8.9-40.6 162.1 11.3-1.5 22.1z" fill="#24245b" fill-rule="evenodd" clip-rule="evenodd" class="fill-24245b"></path></g><path d="M1723.4 3048.5v203.4h-268.9s-11.2-105.7 110.6-110.1l11.7-91.8 146.6-1.5z" fill="#7ca3c4" fill-rule="evenodd" clip-rule="evenodd" class="fill-c57dba"></path><defs><path d="M1723.4 3048.5v203.4h-268.9s-11.2-105.7 110.6-110.1l11.7-91.8 146.6-1.5z" id="k"></path></defs><clipPath id="l"><use overflow="visible" xlink:href="#k"></use></clipPath><g clip-path="url(#l)"><path d="M1572.7 3082.7s56 24.2 151.4 10.9l9.9-40.4-162.3 7.2 1 22.3z" fill="#24245b" fill-rule="evenodd" clip-rule="evenodd" class="fill-24245b"></path></g><path d="m1722.5 3143 .9 108.9h100.7c-66.5-12.5-91.3-64.7-101.6-108.9zm-708.2-96-18.4 204.9h250.5s22.8-105-102-110.1v-93.4l-130.1-1.4zm-248.5-683.6-159.9-86.5c-41.7-22.8-156.7 196.8-80.8 246.1 0 0 69.2 43.5 126.2-62.7l58.6 30.6 55.9-127.5z" fill="#24245b" fill-rule="evenodd" clip-rule="evenodd" class="fill-24245b"></path><path d="m1270.8 1974.1-81.3 1092.8s-113.5 28.4-197.6-18.4l31-540.6c-22.7 75.9-116.2 139.3-204.5 89.1-104.9-59.6-196.4-126.1-196.4-126.1s-17.4-93.1 83-157.9l113.3 58.8 76.9-385.1 375.6-12.6z" fill="#c3d4f0" fill-rule="evenodd" clip-rule="evenodd" class="fill-efc2e9"></path><defs><path d="m1270.8 1974.1-81.3 1092.8s-113.5 28.4-197.6-18.4l31-540.6c-22.7 75.9-116.2 139.3-204.5 89.1-104.9-59.6-196.4-126.1-196.4-126.1s-17.4-93.1 83-157.9l113.3 58.8 76.9-385.1 375.6-12.6z" id="m"></path></defs><clipPath id="n"><use overflow="visible" xlink:href="#m"></use></clipPath><g clip-path="url(#n)"><path d="M883.3 1997.4s180.1 112.3 387.5 35.2l14.8-69.9-402.2 8.8v25.9z" fill="#24245b" fill-rule="evenodd" clip-rule="evenodd" class="fill-24245b"></path></g><path d="M2380.8 1113.8c-6.7-13.9-74.1 19.7-55.4 124.7 0 0 2.7 30.1-4 42.3-48.4 11.5-105.9 80.6-53.4 168.4l158.9-5.2-46.1-330.2zm-1136.1-43.4s9.8-14.8 0-24.2c-22-21.3-133.2-53.1-192.8 19.1-42.6 51.7-49.4 59.4-76.7 95.7-46.4 61.7-37.8 115.6 31 148.7.4 13.3-11.8 29.4 56.5 50.1 0 0 169.5 45.2 231.2-42.7 0 0-26.9-36.7-27.9-81.1-.9-42.7 5.1-82.3 5.1-82.3s13.9-61.2-26.4-83.3z" fill="#24245b" fill-rule="evenodd" clip-rule="evenodd" class="fill-24245b"></path><ellipse cx="818.3" cy="1859.9" rx="76.9" ry="65.8" fill="#24245b" fill-rule="evenodd" clip-rule="evenodd" class="fill-24245b"></ellipse><path d="M1877.1 1912.2c29.9 108.5 64.4 524.4 59.2 595.6-6.6 89.7-65.9 443.5-85.2 553.2 0 0-37.1 17.1-105.1 0 0 0-118.3 19.5-200.7 0 0 0-34.1-869.2-35.3-1022-.6-72.8 6.7-86.7 15-126.8 8.2-40.1 255.7-94 352.1 0z" fill="#88e381" fill-rule="evenodd" clip-rule="evenodd" class="fill-006cff"></path><defs><path d="M1877.1 1912.2c29.9 108.5 64.4 524.4 59.2 595.6-6.6 89.7-65.9 443.5-85.2 553.2 0 0-37.1 17.1-105.1 0 0 0-118.3 19.5-200.7 0 0 0-34.1-869.2-35.3-1022-.6-72.8 6.7-86.7 15-126.8 8.2-40.1 255.7-94 352.1 0z" id="o"></path></defs><clipPath id="p"><use overflow="visible" xlink:href="#o"></use></clipPath><g clip-path="url(#p)"><path d="M1767.3 2436.6s-30.2 357.4 109.8 499.4c0 0 17.9 103.1-7.6 142-26.1 39.8-95.9 14.9-123.6-17l21.4-624.4z" fill="#24245b" fill-rule="evenodd" clip-rule="evenodd" class="fill-24245b"></path></g><path d="m2768.1 2128.3-12.5 9.6 112.5 147 12.5-9.6-112.5-147z" fill="#88e381" fill-rule="evenodd" clip-rule="evenodd" class="fill-006cff"></path><path clip-rule="evenodd" d="M2829.4 2174.9c-7.6 12.5-24 58.3 6.3 62.7 14 2 12.1-27.1 29-40.2" fill="#f99382" fill-rule="evenodd" stroke="#24245b" stroke-linecap="round" stroke-linejoin="round" stroke-miterlimit="12.5" stroke-width="4.167" class="fill-f99382 stroke-24245b"></path><path d="m2867.6 2027.7-58.2 1045.1s90.8 31.2 194.4 5.2l56.4-545.1 88.3 545.1s83.1 33 196.2 0l-92.9-1064.2c.1 0-170.7-78.8-384.2 13.9z" fill-rule="evenodd" clip-rule="evenodd" fill="#aec6f8" class="fill-aec6f8"></path><defs><path d="m2867.6 2027.7-58.2 1045.1s90.8 31.2 194.4 5.2l56.4-545.1 88.3 545.1s83.1 33 196.2 0l-92.9-1064.2c.1 0-170.7-78.8-384.2 13.9z" id="q"></path></defs><clipPath id="r"><use overflow="visible" xlink:href="#q"></use></clipPath><g clip-path="url(#r)"><path d="m3060.2 2532.9-56.4-344.9 35.5 546.8c21.8-34.6 26.1-107.7 20.9-201.9zM2853.4 2039s80.4 44.7 269.5 63.7c0 0 33.2 64.7 117.7 62.6l58.2 49.1 29.4-227.8-447.6-23.9-27.2 76.3z" fill="#24245b" fill-rule="evenodd" clip-rule="evenodd" class="fill-24245b"></path></g><path d="M2441.3 1089.2s-8.9-73.7 55.9-83.5c58.4-8.9 71.5 72.7 7.2 105.9-.1 0-36.1-23.6-63.1-22.4z" fill="#24245b" fill-rule="evenodd" clip-rule="evenodd" class="fill-24245b"></path><path d="M980 1395.7s-74.7 23.4-113 70.4c-38.8 47.7-113.6 264.1-106.3 261.5L867 1899.8v82.7s244.2 99 420.9 4.1l11.2-236.9 53.1 68.9 58.7-209.9s-55.5-109.2-79.3-142.6c-12.5-17.6-29.3-27-46.2-36.4l-305.4-34z" fill="#88e381" fill-rule="evenodd" clip-rule="evenodd" class="fill-006cff"></path><defs><path d="M980 1395.7s-74.7 23.4-113 70.4c-38.8 47.7-113.6 264.1-106.3 261.5L867 1899.8v82.7s244.2 99 420.9 4.1l11.2-236.9 53.1 68.9 58.7-209.9s-55.5-109.2-79.3-142.6c-12.5-17.6-29.3-27-46.2-36.4l-305.4-34z" id="s"></path></defs><clipPath id="t"><use overflow="visible" xlink:href="#s"></use></clipPath><g clip-path="url(#t)"><path d="M1317.5 1615c19.9 81.4 19.7 94.9-18.3 134.7l78.9 102.5c-.1.1 15-87.4-60.6-237.2z" fill="#24245b" fill-rule="evenodd" clip-rule="evenodd" class="fill-24245b"></path></g><path d="M2233.3 1540.2s-41 119.2-36.3 161.6c3.4 30.4 31.3 54.5 36.3 68.4 1.7 4.8 1.4 92.6.8 161.1" fill="none" stroke="#282845" stroke-width="4.1667" stroke-linecap="round" stroke-linejoin="round" stroke-miterlimit="12.5" class="stroke-282845"></path><path d="M1637.4 1372.4s-104.9 16-163.5 61.5c-68 52.8-169.6 340.5-135.3 449 33.5 106.2 123.1 74.1 186 29.6h357.5s9.6 18.6 31.1-228.1l101.8 65.3s78.8 60.2 147.2 0l154.1-265.3H2247l-148.6 113-100.1-113c-41.6-39.2-58.8-72.6-210.2-117l-150.7 5z" fill-rule="evenodd" clip-rule="evenodd" fill="#aec6f8" class="fill-aec6f8"></path><defs><path d="M1637.4 1372.4s-104.9 16-163.5 61.5c-68 52.8-169.6 340.5-135.3 449 33.5 106.2 123.1 74.1 186 29.6h357.5s9.6 18.6 31.1-228.1l101.8 65.3s78.8 60.2 147.2 0l154.1-265.3H2247l-148.6 113-100.1-113c-41.6-39.2-58.8-72.6-210.2-117l-150.7 5z" id="u"></path></defs><clipPath id="v"><use overflow="visible" xlink:href="#u"></use></clipPath><g clip-path="url(#v)"><path d="m1877.1 1398.1-27.4 541.2h-27l28.4-551.4s15.8-17.1 26 10.2zm-283.1-30.7 47.9 567.9-27.5-5.1-46.5-557.8s12.3-30.7 26.1-5z" fill="#88e381" fill-rule="evenodd" clip-rule="evenodd" class="fill-006cff"></path><path d="m1913.3 1684.4 7.2-100 38.9 129.6c-19.8 15.3-34.8 3.4-46.1-29.6zm-130.4 32.4s-120 197.3-166.5 195.6c0 0-43.3 24.7-91.9 0l19.9-71.8 238.5-123.8z" fill="#24245b" fill-rule="evenodd" clip-rule="evenodd" class="fill-24245b"></path></g><path d="M2234.1 1931.3c-.4 44.7-.8 81.3-.8 81.3s152.6 25.7 363.6 0l15.6-310.8 43.5-166.6s12.7-88.6-158.7-120.5h-124.1s-131.2 24.1-158.8 81.1c-33.1 68.4-107.4 320.5-125.9 362.6-18.5 42.1-104.1 244.5-104.1 244.5s24.7 73.6 139.8 72.1c0-.1 65.4-120.3 109.9-243.7z" fill="#88e381" fill-rule="evenodd" clip-rule="evenodd" class="fill-006cff"></path><defs><path d="M2234.1 1931.3c-.4 44.7-.8 81.3-.8 81.3s152.6 25.7 363.6 0l15.6-310.8 43.5-166.6s12.7-88.6-158.7-120.5h-124.1s-131.2 24.1-158.8 81.1c-33.1 68.4-107.4 320.5-125.9 362.6-18.5 42.1-104.1 244.5-104.1 244.5s24.7 73.6 139.8 72.1c0-.1 65.4-120.3 109.9-243.7z" id="w"></path></defs><clipPath id="x"><use overflow="visible" xlink:href="#w"></use></clipPath><g clip-path="url(#x)"><path d="M2234.6 1814.3s-34.7 183.2-249 291.4l29.5 103.2 160.8 4.5 58.2-280.3.5-118.8zm312.5-210.5s-15 10.7-24.6 20.8c0 0 64.6 166.9 76 357.9l84.2-70.3c-32.9-124.4-77.5-228.2-135.6-308.4z" fill="#24245b" fill-rule="evenodd" clip-rule="evenodd" class="fill-24245b"></path></g><path d="m2234.1 1931.3-.8-195.6c-29.6-34.1-41.9-65.3 13.8-178.7" fill="none" stroke="#24245b" stroke-width="4.1667" stroke-linecap="round" stroke-linejoin="round" stroke-miterlimit="12.5" class="stroke-24245b"></path><path d="M2387 1110.4c-48.8 32-114.1 232.9-10.7 264.4 0 0-5.4 36.6-11.4 62.3-11 47.1 80.4 66 134.4-17.6l59.6-142.1-17.5-102.4-154.4-64.6z" fill="#f99382" fill-rule="evenodd" clip-rule="evenodd" class="fill-f99382"></path><defs><path d="M2387 1110.4c-48.8 32-114.1 232.9-10.7 264.4 0 0-5.4 36.6-11.4 62.3-11 47.1 80.4 66 134.4-17.6l59.6-142.1-17.5-102.4-154.4-64.6z" id="y"></path></defs><clipPath id="z"><use overflow="visible" xlink:href="#y"></use></clipPath><g clip-path="url(#z)"><path d="M2376.3 1374.8s29.3 8.6 63.8-9.9c0 0-16.6 42.6-68.9 40.6.1 0-15.1-23.8 5.1-30.7z" fill="#24245b" fill-rule="evenodd" clip-rule="evenodd" class="fill-24245b"></path></g><path d="M2400 1211.7s-16.1 40.7-19.2 50.5c-1.8 5.6 2.8 9.3 6.3 10.5m43.5-97.7s25.2-19.1 49.6 6.5m-127.1-10.3s22.3-14.7 40.3.9m122.3 64s.4 24-11.4 44.3m7.8-18.8s17.8-2.9 24.1-11.7" fill="none" stroke="#24245b" stroke-width="4.1667" stroke-linecap="round" stroke-linejoin="round" stroke-miterlimit="12.5" class="stroke-24245b"></path><path d="M2382.5 1103.1c-8.1 22.4 9.6 68.3 91.9 78.4 0 0 10.2 29.5 23.2 41.4 0 0 27.1-22.6 46.2 5.4 19 28-4.7 80.8-52.1 74.4-34.9 17.4-49.2 104.8 36.6 124 27 6 45.7 14.6 53.1 17.4 72 27.4 124-126.4 0-176.5-34.4-13.9 10.5-95.7-58.8-157-60.8-53.8-131-32.6-140.1-7.5z" fill="#24245b" fill-rule="evenodd" clip-rule="evenodd" class="fill-24245b"></path><path d="M2533 1573.7s-88.5-94-42.5-116.7c0 0 5.5-23.1 30.8-22.4 0 0 23.4-44.6 55.5 4.1 2.8-15 21-47.5 42.7-47.6 11.2-.1 14.6 14.2 7.1 25.5-12.9 19.8-20 46.7-14.8 57.1 6.3 12.6 13.7 19.3 24.9 34.8l-103.7 65.2z" fill="#f99382" fill-rule="evenodd" clip-rule="evenodd" class="fill-f99382"></path><path d="M2368.4 1200.7c4.1-.8 7 3.8 6.6 10.1-.4 6.4-4.1 12.1-8.2 12.9-4.1.8-7-3.8-6.6-10.1.5-6.3 4.1-12.1 8.2-12.9zm78.1 2.7c4.1-.8 7 3.8 6.6 10.1-.4 6.4-4.1 12.2-8.1 12.9-4.1.8-7-3.8-6.6-10.1.4-6.3 4.1-12.1 8.1-12.9z" fill="#24245b" fill-rule="evenodd" clip-rule="evenodd" class="fill-24245b"></path><path d="M2382.8 1305.4s31.6 1 54.9-15.8c0 0 3.6 35.4-26.8 40-26.6 4-27.5-23.4-28.1-24.2z" fill-rule="evenodd" clip-rule="evenodd" fill="#ffffff" class="fill-ffffff"></path><path d="M2008.4 2179.5s28.8 13.9 53.2 1.7m-76 30.4s18.7-11.6 31.1-27m-40.4-5.1s14.6-1.8 32.1-20.8m14.2 52.9s10.5-7.5 18.6-18.6m284.5 298.6-9.9 32.5m67.5 411.9s-25.6 9.4-46.4 0" fill="none" stroke="#282845" stroke-width="4.1667" stroke-linecap="round" stroke-linejoin="round" stroke-miterlimit="12.5" class="stroke-282845"></path><path d="M2980.2 1382.2s-108 28-134.8 133.7c-26.8 105.7-39.9 544.9-48.5 619 0 0 41.9 10.4 70.8 2.2l3.5-108.8s144.5 23.5 380.8 0l59.9 7.5s7.1 1.2 18.4 0c0 0 138.1-232.1 156.9-272.7 25.7-55.7 9-87.4-9.6-116.9-23.5-37.3-128.1-183.3-147.3-202.2-26-25.5-64.1-62-214.4-80.6l-135.7 18.8zm318.6 329.6-6.1 79.4 33.1-52.8-27-26.6z" fill="#c3d4f0" fill-rule="evenodd" clip-rule="evenodd" class="fill-efc2e9"></path><defs><path d="M2980.2 1382.2s-108 28-134.8 133.7c-26.8 105.7-39.9 544.9-48.5 619 0 0 41.9 10.4 70.8 2.2l3.5-108.8s144.5 23.5 380.8 0l59.9 7.5s7.1 1.2 18.4 0c0 0 138.1-232.1 156.9-272.7 25.7-55.7 9-87.4-9.6-116.9-23.5-37.3-128.1-183.3-147.3-202.2-26-25.5-64.1-62-214.4-80.6l-135.7 18.8zm318.6 329.6-6.1 79.4 33.1-52.8-27-26.6z" id="A"></path></defs><clipPath id="B"><use overflow="visible" xlink:href="#A"></use></clipPath><g clip-path="url(#B)"><path d="M2853.4 2002.4s-2.4 62.5-56.6 132.5l-49.9 70.5 25.3 107.5s123.6 18 125 6.3c1.3-11.8 23.6-237.1 23.6-237.1l-49.7-53.9-17.7-25.8zm188.2-72.2s-9.8 14.3-17.6 25.7c-5.7 8.3-5.3 19.4 1.1 27.2 23.9 29.7 79.7 99 79.7 99l82.6-95.5-145.8-56.4z" fill="#24245b" fill-rule="evenodd" clip-rule="evenodd" class="fill-24245b"></path></g><path d="M3169.8 1731.5c-3.7-3.4-8.6-5.1-13.6-4.6-5 .4-9.6 3-12.6 6.9-29.9 38.9-107.9 140.3-136.7 177.7-6 7.8-4.6 19 3.2 25.1 50.2 38.8 219.6 169.9 269.9 208.8 3.8 2.9 8.5 4.2 13.2 3.6 4.7-.6 9-3.1 11.9-6.8 26.6-34.4 94.3-121.9 120-155.1 5.7-7.4 4.8-17.9-2.1-24.2-45.3-41.4-204.3-186.7-253.2-231.4z" fill="#88e381" fill-rule="evenodd" clip-rule="evenodd" class="fill-006cff"></path><path d="M3216.1 1938.1s-5.5 19-16.4 24.6c-14.4 7.5-30.3 16-37.2 16.9-14 1.8-45.6 2.2-45.6 2.2s-8.2 36.8 42.1 32c0 0-31.9 36.8-34.4 56.1-1.5 11.7 13 24.2 31.9 20.6 0 0-1.5 31.5 38.6 23.3 0 0 19 20.4 46.8 2.2 27.6-18 76.8-92.9 76.8-92.9l-102.6-85z" fill="#f99382" fill-rule="evenodd" clip-rule="evenodd" class="fill-f99382"></path><path clip-rule="evenodd" d="m2867.6 1597.4-31.9 421.4s13.2 5.9 35.4 9.4" fill="#c3d4f0" fill-rule="evenodd" stroke="#24245b" stroke-linecap="round" stroke-linejoin="round" stroke-miterlimit="12.5" stroke-width="4.167" class="fill-efc2e9 stroke-24245b"></path><path d="m3271.6 1824.6-72 114.6s12.1 66.6 130.5 96.5l60.5-102.4" fill="#c3d4f0" fill-rule="evenodd" clip-rule="evenodd" class="fill-efc2e9"></path><path d="m3240.5 1652.5 58.2 59.3-4 51.2-54.2-110.5z" fill="#24245b" fill-rule="evenodd" clip-rule="evenodd" class="fill-24245b"></path><path d="M1603.7 1144.2c-36.7 30.8-10.4 94.8 33.7 96.7 0 0 6.3 90.7 0 131.5 12.5 54.1 168.8 105.5 151.3 0l-7.1-70 51.4-79.5s-6.5-76.2-23.3-133.7c-63.4-39.2-104.1-20.1-149.2-12.1l-56.8 67.1z" fill="#f99382" fill-rule="evenodd" clip-rule="evenodd" class="fill-f99382"></path><defs><path d="M1603.7 1144.2c-36.7 30.8-10.4 94.8 33.7 96.7 0 0 6.3 90.7 0 131.5 12.5 54.1 168.8 105.5 151.3 0l-7.1-70 51.4-79.5s-6.5-76.2-23.3-133.7c-63.4-39.2-104.1-20.1-149.2-12.1l-56.8 67.1z" id="C"></path></defs><clipPath id="D"><use overflow="visible" xlink:href="#C"></use></clipPath><g clip-path="url(#D)"><path d="M1688.9 1322.9s25.3 60.7 100.6 54.9c0 0 20.9-12.4-5.5-51.8l-95.1-3.1z" fill="#f99382" fill-rule="evenodd" clip-rule="evenodd" class="fill-f99382"></path></g><path d="m1664.7 1240.9-13.9-96.7s-24.1-16.8-47 0c0 0-22-47.1-22.9-55.1-.9-8 22.9-17.8 22.9-17.8s-21.5-34 16.5-46.1c13-25.6 144.8-53.4 169-9.9 19.1 5.3 34.1-5 20.5 73.7 0 0-62.8-18.2-135.8 12.1v83.3s30 14.4 37.7 57.5c0 0 51.8-29.1 121.4-19.2 24 22.1 36.4 127.1-43.8 107.1-33.7 20.5-139.7 20.8-124.6-88.9z" fill="#24245b" fill-rule="evenodd" clip-rule="evenodd" class="fill-24245b"></path><path d="M1787.2 1333.7s13.7-7.2 22.6-18.1" fill="none" stroke="#ffffff" stroke-linecap="round" stroke-linejoin="round" stroke-miterlimit="12.5" stroke-width="4.167" class="stroke-ffffff"></path><path d="M1762.4 1144.2s17.2 48 19.3 54.2c2.1 6.2-4.6 11.1-10.7 13.3m-3.7-100.1s22.6-2.1 36.3 10.1m-114.7 6.1s7.8-15.5 38.7-16.2m-95.5 56.5s6.7 17.6 4.2 43.5m-24.1-30.1s16.7 1.7 24.3 10.5" fill="none" stroke="#24245b" stroke-width="4.1667" stroke-linecap="round" stroke-linejoin="round" stroke-miterlimit="12.5" class="stroke-24245b"></path><path d="M1793.8 1141.9c-4.1-.8-7.6 3.7-7.9 9.9-.3 6.2 2.8 11.9 6.8 12.7 4.1.8 7.6-3.7 7.9-9.9.4-6.2-2.7-11.9-6.8-12.7zm-77.9 6.7c-4.1-.8-7.6 3.7-7.9 9.9s2.8 11.9 6.8 12.7c4.1.8 7.6-3.7 7.9-9.9.4-6.2-2.7-11.9-6.8-12.7z" fill="#24245b" fill-rule="evenodd" clip-rule="evenodd" class="fill-24245b"></path><path d="M1750.1 1249.9s7.9 24.1 34.4 17.6" fill="none" stroke="#f99382" stroke-linecap="round" stroke-linejoin="round" stroke-miterlimit="12.5" stroke-width="4.167" class="stroke-f99382"></path><path d="M1636.8 1676.5s8.2-11.5 20-39.9c14.8-35.6 36.9-33.8 59.1-18.3 0 0 6.8-5.6 14.8-9.6 15.3-7.6 35.4 8 31.6 27.9 14.6-.1 29.7 16.3 19.7 35.7 0 0 55.1 32.2-85.6 110.1l-59.6-105.9zm-405-587.3s61.3 20.6 36.8 166.6c-12.9 76.6-55.8 89.9-79 89.1v37.8s49.4 20.9 95.9 47c0 0-93.1 159-305.5-34 0 0 44.6-13.8 81-23.2l16-118.6c-34.2-4.1-56.1-70.3-26.2-90.2 19.7-13.1 41.8-.1 46.4 11.3.1 0 82.6-20.6 134.6-85.8z" fill="#f99382" fill-rule="evenodd" clip-rule="evenodd" class="fill-f99382"></path><defs><path d="M1231.8 1089.2s61.3 20.6 36.8 166.6c-12.9 76.6-55.8 89.9-79 89.1v37.8s49.4 20.9 95.9 47c0 0-93.1 159-305.5-34 0 0 44.6-13.8 81-23.2l16-118.6c-34.2-4.1-56.1-70.3-26.2-90.2 19.7-13.1 41.8-.1 46.4 11.3.1 0 82.6-20.6 134.6-85.8z" id="E"></path></defs><clipPath id="F"><use overflow="visible" xlink:href="#E"></use></clipPath><g clip-path="url(#F)"><path d="M1189.6 1344.8s-33.8-.7-59.2-23.1c0 0 3.9 50.4 59.2 58.7 0 .1 19.7-20.3 0-35.6z" fill="#24245b" fill-rule="evenodd" clip-rule="evenodd" class="fill-24245b"></path></g><path d="M1077.1 1177.9s-6.1 24.7 3 51.1m118.3-57.6s13.5 44.9 15.6 51.5c2.1 6.5-10.2 12.1-10.2 12.1m8.2-103.4s27.6-12.5 41.4 3.4m-89-7.2s-30.2-.4-40.2 16.4M1052 1192s9.9 14.6 23.1 16.8" fill="none" stroke="#24245b" stroke-width="4.1667" stroke-linecap="round" stroke-linejoin="round" stroke-miterlimit="12.5" class="stroke-24245b"></path><path d="M1170.5 1249.9s20.7 13.3 51.7 9.3c0 0-5.7 20.2-18.5 24-10.9 3.4-38.9-2.4-33.2-33.3z" fill-rule="evenodd" clip-rule="evenodd" fill="#ffffff" class="fill-ffffff"></path><path d="M1233.2 1165.7c-4.1-.8-7.6 3.7-7.9 9.9-.3 6.2 2.8 11.9 6.8 12.7 4.1.8 7.6-3.7 7.9-9.9.4-6.2-2.7-11.9-6.8-12.7zm-75.7-1.9c-4.1-.8-7.6 3.7-7.9 9.9-.3 6.2 2.8 11.9 6.8 12.7 4.1.8 7.6-3.7 7.9-9.9.3-6.3-2.7-12-6.8-12.7z" fill="#24245b" fill-rule="evenodd" clip-rule="evenodd" class="fill-24245b"></path><path d="M659.2 1793c-3.4 8.7.7 18.5 9.2 22.2 51.2 22.3 216.6 94.1 269.4 117 4.3 1.9 9.1 1.9 13.5.1 4.3-1.8 7.8-5.2 9.5-9.6 19.2-48.1 74.9-187.3 93.9-234.8 1.7-4.3 1.6-9-.2-13.3-1.8-4.2-5.2-7.6-9.5-9.3-52.9-21.1-221.4-88.4-274.5-109.6-4.3-1.7-9.1-1.6-13.3.2-4.2 1.8-7.5 5.3-9.2 9.6-18.4 46.9-70.9 181.6-88.8 227.5z" fill-rule="evenodd" clip-rule="evenodd" fill="#aec6f8" class="fill-aec6f8"></path><path d="M705.8 1806.1s32.1 80.4 54.9 85.5c22.8 5.1 56.3 13.7 56.3 13.7s23.2 6.3 39.2-9.3l-42-18.2 6.5-29.5s39.5-16.9 29.3-36.2c-6.5-12.3-43.5 2.8-48.2 4.7-8.7 3.5-13.2 9.8-14.9 15.2 14-57.5-32-73.6-35-39.9-.5 5.8-1 13.1-1.6 24.7-16.5-34.6-51-26.6-44.5-10.7z" fill="#f99382" fill-rule="evenodd" clip-rule="evenodd" class="fill-f99382"></path><path d="M775 1865.4s7.7-22.8 11.9-33.4m-36.6-15.2s-2.6 32.5 0 50.3" fill="none" stroke="#282845" stroke-width="4.1667" stroke-linecap="round" stroke-linejoin="round" stroke-miterlimit="12.5" class="stroke-282845"></path><path d="M1124.2 2149.6c-11.6 163.4-45 474.2-110 509.3l8.7-151.1 101.3-358.2zm-321 287 15.1-64.9-24.7-12.8c-4.1 25.3.4 51.3 9.6 77.7z" fill="#24245b" fill-rule="evenodd" clip-rule="evenodd" class="fill-24245b"></path><path d="M1510 1385.3s14.9-30.8 43-17.3c0 0 14.9-16.9 35.8-3.5 0 0 16.1-16.1 35.6 13.3 19.5 29.4-12.8 36.9-19.5 33 0 0-7.4 13.3-24.1 8.7 0 0-20.1 12-48.3-17.8 0 0-31.6 12.8-52.8 28 0 0 2.8-37.5 4.2-44.4 1.5-6.9 14.1-11 26.1 0z" fill="#f99382" fill-rule="evenodd" clip-rule="evenodd" class="fill-f99382"></path><path d="M1510 1385.3s7.6 9.5 6.1 23.6m36.9-41s49 27.1 27.8 51.5m8-54.9s29.7 24.1 16.1 46.3" fill="none" stroke="#24245b" stroke-width="4.1667" stroke-linecap="round" stroke-linejoin="round" stroke-miterlimit="12.5" class="stroke-24245b"></path><path d="M2512.5 1585.2s53.2-67.1 139.3-95.8c0 0 116.4 165.7 155.1 240.5 34.9 67.4 14.2 108.6-24.2 134.3-43.4 29-79.9 2.4-110.6-39-30.7-41.4-159.6-240-159.6-240z" fill="#88e381" fill-rule="evenodd" clip-rule="evenodd" class="fill-006cff"></path><path d="m2610.8 1735.8-100.2-149.7s8-11.3 31.6-32.3" fill="none" stroke="#24245b" stroke-width="4.1667" stroke-linecap="round" stroke-linejoin="round" stroke-miterlimit="12.5" class="stroke-24245b"></path><path clip-rule="evenodd" d="m1403.7 1797.2 230.8-128.7s46 31.8 73.7 113.9l-183.6 130.1" fill="#aec6f8" fill-rule="evenodd" stroke="#24245b" stroke-linecap="round" stroke-linejoin="round" stroke-miterlimit="12.5" stroke-width="4.167" class="fill-aec6f8 stroke-24245b"></path><path d="M2354.7 1158.7c18.4 0 31.3 21.1 28.7 47.2-2.5 26-19.6 47.2-37.9 47.2-18.4 0-31.3-21.1-28.7-47.2 2.5-26 19.5-47.2 37.9-47.2zm95.1 0c21 0 36.1 21.1 33.5 47.2-2.5 26-21.7 47.2-42.7 47.2-21 0-36.1-21.1-33.5-47.2 2.5-26 21.7-47.2 42.7-47.2zm-66.5 48s9.4-10.9 23.7 0" fill="none" stroke="#e1ffe0" stroke-width="4.1667" stroke-linecap="round" stroke-linejoin="round" stroke-miterlimit="12.5" class="stroke-ffebe2"></path><path d="M2943.1 1118.3c-12.1-48-18.1-66.8 11.7-76.5-2.7-22.6-.3-47.1 40.8-45-1.2-12.6 15-35.4 56.1-15.4 5.1-10.7 47-18.9 57.3 15.4 11.5 3.5 52.1 15.7 36.1 37 14 4.8 40.8 19.7 28.4 43.2 12.9 5.9 26.5 16-8 57.9l-66.1 49.6-156.3-66.2z" fill="#24245b" fill-rule="evenodd" clip-rule="evenodd" class="fill-24245b"></path><path d="M2956.3 1077s-78.7 197.6 35.6 235.7l-12.3 72.5s-8.4 38.7 12.3 79.5c0 0 76.7-67.9 123.9-101.4l8.5-135.1c26.5-1.1 66.4-57 41.2-93.3-24.5-35.2-65.7-2.4-66.8 15.9 0 0-1.5-49.5 0-73.8 0 0-93.4-55.9-142.4 0z" fill="#f99382" fill-rule="evenodd" clip-rule="evenodd" class="fill-f99382"></path><defs><path d="M2956.3 1077s-78.7 197.6 35.6 235.7l-12.3 72.5s-8.4 38.7 12.3 79.5c0 0 76.7-67.9 123.9-101.4l8.5-135.1c26.5-1.1 66.4-57 41.2-93.3-24.5-35.2-65.7-2.4-66.8 15.9 0 0-1.5-49.5 0-73.8 0 0-93.4-55.9-142.4 0z" id="G"></path></defs><clipPath id="H"><use overflow="visible" xlink:href="#G"></use></clipPath><g clip-path="url(#H)"><path d="M3064.8 1302.4s-33.7 21.5-72.9 10.3c0 0-17.6 18.5-6.4 38 0 0 66.9 3 79.3-48.3z" fill="#24245b" fill-rule="evenodd" clip-rule="evenodd" class="fill-24245b"></path></g><path d="M3014.9 1127.8s-16.5 49.1-19 62.1c-1.3 6.7 10 9.3 14.9 9.6m40.9 5.3c-1.2 4.7-7.6 35.5-47.9 33.7m38.3-139.7s17.5-10.8 35 4m-118.8-.1s10.2-15.5 37.5-3.9m144.8 45.4s-17.1 18.3-18.1 60.5m33.7-39.8s-17.8-.1-30.6 13.1" fill="none" stroke="#24245b" stroke-width="4.1667" stroke-linecap="round" stroke-linejoin="round" stroke-miterlimit="12.5" class="stroke-24245b"></path><path d="M2976.3 1121.7c4.1-.8 7.3 3.7 6.9 9.9-.3 6.2-3.9 11.9-8.1 12.7-4.1.8-7.3-3.7-6.9-9.9s4-11.9 8.1-12.7zm77.8 0c4.1-.8 7.3 3.7 7 9.9-.3 6.2-3.9 11.9-8.1 12.7-4.1.8-7.3-3.7-6.9-9.9.2-6.2 3.9-11.9 8-12.7z" fill="#24245b" fill-rule="evenodd" clip-rule="evenodd" class="fill-24245b"></path></svg>